<svg
 xmlns="http://www.w3.org/2000/svg"
 xmlns:xlink="http://www.w3.org/1999/xlink"
 width="40px" height="40px">
<path fill-rule="evenodd" d="M-0.000,20.000 C-0.000,31.045 8.953,40.000 20.001,40.000 C31.046,40.000 40.000,31.045 40.000,20.000 C40.000,8.954 31.046,-0.000 20.001,-0.000 C8.953,-0.000 -0.000,8.954 -0.000,20.000 ZM34.733,20.000 C34.733,28.136 28.136,34.733 20.001,34.733 C11.861,34.733 5.267,28.136 5.267,20.000 C5.267,11.863 11.861,5.267 20.001,5.267 C28.136,5.267 34.733,11.863 34.733,20.000 ZM10.988,20.878 C8.691,23.321 12.365,27.009 14.669,24.560 C16.481,22.633 18.292,20.708 20.105,18.782 C21.853,20.696 23.601,22.611 25.352,24.525 C27.618,27.009 31.290,23.317 29.033,20.844 C26.678,18.268 24.326,15.691 21.972,13.115 C21.037,12.090 19.231,12.117 18.292,13.115 C15.858,15.703 13.421,18.291 10.988,20.878 Z"/>
</svg>