<svg xmlns="http://www.w3.org/2000/svg" viewBox="0 0 90 90"><path d="M34.5,78.62V81A1.5,1.5,0,0,0,36,82.5H70.5A1.5,1.5,0,0,0,72,81V69a1.5,1.5,0,0,0-1.5-1.5H36A1.5,1.5,0,0,0,34.5,69v2.38l-2.56,2.56a1.49,1.49,0,0,0,0,2.12h0Zm2.56-5.56A1.5,1.5,0,0,0,37.5,72V70.5H69v9H37.5V78a1.5,1.5,0,0,0-.44-1.06L35.12,75Z" fill="#fff"/><path d="M34.5,59.12V61.5A1.5,1.5,0,0,0,36,63H70.5A1.5,1.5,0,0,0,72,61.5v-12A1.5,1.5,0,0,0,70.5,48H36a1.5,1.5,0,0,0-1.5,1.5v2.38l-2.56,2.56a1.49,1.49,0,0,0,0,2.12h0Zm2.56-5.56a1.5,1.5,0,0,0,.44-1.06V51H69v9H37.5V58.5a1.5,1.5,0,0,0-.44-1.06L35.12,55.5Z" fill="#fff"/><path d="M34.5,39.62V42A1.5,1.5,0,0,0,36,43.5H70.5A1.5,1.5,0,0,0,72,42V30a1.5,1.5,0,0,0-1.5-1.5H36A1.5,1.5,0,0,0,34.5,30v2.38l-2.56,2.56a1.49,1.49,0,0,0,0,2.12h0Zm2.56-5.56A1.5,1.5,0,0,0,37.5,33V31.5H69v9H37.5V39a1.5,1.5,0,0,0-.44-1.06L35.12,36Z" fill="#fff"/><path d="M48,73.5H66v3H48Z" fill="#fff"/><path d="M40.5,73.5H45v3H40.5Z" fill="#fff"/><path d="M48,54H66v3H48Z" fill="#fff"/><path d="M40.5,54H45v3H40.5Z" fill="#fff"/><path d="M48,34.5H66v3H48Z" fill="#fff"/><path d="M40.5,34.5H45v3H40.5Z" fill="#fff"/><path d="M18,75a4.5,4.5,0,0,0,3,4.24V82.5h3V79.24a4.5,4.5,0,0,0,0-8.48v-11a4.5,4.5,0,0,0,0-8.48v-11a4.5,4.5,0,0,0,0-8.48V28.5H21v3.26a4.5,4.5,0,0,0,0,8.48v11a4.5,4.5,0,0,0,0,8.48v11A4.5,4.5,0,0,0,18,75Zm4.5,1.5A1.5,1.5,0,1,1,24,75,1.5,1.5,0,0,1,22.5,76.5Zm0-42A1.5,1.5,0,1,1,21,36,1.5,1.5,0,0,1,22.5,34.5Zm0,19.5A1.5,1.5,0,1,1,21,55.5,1.5,1.5,0,0,1,22.5,54Z" fill="#fff"/><path d="M85.5,6H81V4.5a4.5,4.5,0,0,0-9,0V6H60V4.5a4.5,4.5,0,0,0-9,0V6H39V4.5a4.5,4.5,0,0,0-9,0V6H18V4.5a4.5,4.5,0,0,0-9,0V6H4.5A4.51,4.51,0,0,0,0,10.5v75A4.51,4.51,0,0,0,4.5,90h81A4.51,4.51,0,0,0,90,85.5v-75A4.51,4.51,0,0,0,85.5,6ZM75,4.5a1.5,1.5,0,0,1,3,0v6a1.5,1.5,0,0,1-3,0Zm-21,0a1.5,1.5,0,0,1,3,0v6a1.5,1.5,0,0,1-3,0Zm-21,0a1.5,1.5,0,0,1,3,0v6a1.5,1.5,0,0,1-3,0Zm-21,0a1.5,1.5,0,0,1,3,0v6a1.5,1.5,0,0,1-3,0Zm75,81A1.5,1.5,0,0,1,85.5,87H4.5A1.5,1.5,0,0,1,3,85.5V24H87ZM87,21H3V10.5A1.5,1.5,0,0,1,4.5,9H9v1.5a4.5,4.5,0,0,0,9,0V9H30v1.5a4.5,4.5,0,0,0,9,0V9H51v1.5a4.5,4.5,0,0,0,9,0V9H72v1.5a4.5,4.5,0,0,0,9,0V9h4.5A1.5,1.5,0,0,1,87,10.5Z" fill="#fff"/></svg>