<svg xmlns="http://www.w3.org/2000/svg" viewBox="0 0 90 72.58"><path d="M84.19,8.71H5.81A5.81,5.81,0,0,0,0,14.52V63.87a5.81,5.81,0,0,0,5.81,5.81H34.15L32.4,74H27.58a1.45,1.45,0,0,0-1.45,1.45v2.91H14.52a1.45,1.45,0,1,0,0,2.9h61a1.45,1.45,0,1,0,0-2.9H63.87V75.48A1.45,1.45,0,0,0,62.42,74H57.6l-1.75-4.35H84.19A5.81,5.81,0,0,0,90,63.87V14.52A5.81,5.81,0,0,0,84.19,8.71ZM61,76.94v1.45H29V76.94ZM35.53,74l1.74-4.35H52.73L54.47,74ZM87.1,63.87a2.91,2.91,0,0,1-2.91,2.9H5.81a2.91,2.91,0,0,1-2.91-2.9V62.42H87.1Zm0-4.35H2.9v-45a2.92,2.92,0,0,1,2.91-2.91H84.19a2.92,2.92,0,0,1,2.91,2.91Z" transform="translate(0 -8.71)" fill="#fff"/><path d="M22.48,50.6,29.74,55a1.43,1.43,0,0,0,1.49,0l7.26-4.35a1.45,1.45,0,0,0,.7-1.25v-8.7a1.45,1.45,0,0,0-.7-1.25l-7.26-4.35a1.43,1.43,0,0,0-1.49,0L22.48,39.4a1.46,1.46,0,0,0-.71,1.25v8.7A1.46,1.46,0,0,0,22.48,50.6Zm2.2-9.13L30.48,38l5.81,3.49v7.06L30.48,52l-5.8-3.49Z" transform="translate(0 -8.71)" fill="#fff"/><path d="M66.77,55.16h-8.1l-3.35-3.34,2-1.22a1.45,1.45,0,0,0,.7-1.25v-8.7a1.45,1.45,0,0,0-.7-1.25L50.1,35.05a1.43,1.43,0,0,0-1.49,0L41.35,39.4a1.45,1.45,0,0,0-.7,1.25v8.7a1.45,1.45,0,0,0,.7,1.25L48.61,55a1.43,1.43,0,0,0,1.49,0l2.66-1.59L57,57.64a1.45,1.45,0,0,0,1,.42h8.71a1.45,1.45,0,1,0,0-2.9ZM55.16,48.53l-1.95,1.18-2.83-2.83a1.45,1.45,0,0,0-2.05,2l2.31,2.31L49.35,52l-5.8-3.49V41.47L49.35,38l5.81,3.49Z" transform="translate(0 -8.71)" fill="#fff"/><path d="M50.06,33.18l7.26,4.36a1.47,1.47,0,0,0,1.49,0l7.26-4.36a1.43,1.43,0,0,0,.7-1.24V23.23a1.45,1.45,0,0,0-.7-1.25l-7.26-4.35a1.43,1.43,0,0,0-1.49,0L50.06,22a1.46,1.46,0,0,0-.71,1.25v8.71A1.44,1.44,0,0,0,50.06,33.18Zm2.2-9.13,5.8-3.49,5.81,3.49v7.06L58.06,34.6l-5.8-3.49Z" transform="translate(0 -8.71)" fill="#fff"/><path d="M23.23,16h6.51l3.44,4.82-2,1.19a1.46,1.46,0,0,0-.71,1.25v8.71a1.44,1.44,0,0,0,.71,1.24l7.26,4.36a1.47,1.47,0,0,0,1.49,0l7.26-4.36a1.43,1.43,0,0,0,.7-1.24V23.23A1.45,1.45,0,0,0,47.2,22l-7.26-4.35a1.43,1.43,0,0,0-1.49,0l-2.77,1.66-4-5.62a1.48,1.48,0,0,0-1.19-.61H23.23a1.46,1.46,0,1,0,0,2.91Zm16,4.59L45,24.05v7.06L39.19,34.6l-5.8-3.49V24.05l1.48-.89,1.69,2.36a1.45,1.45,0,1,0,2.36-1.69l-1.55-2.17Z" transform="translate(0 -8.71)" fill="#fff"/><path d="M8.71,16H18.87a1.46,1.46,0,0,0,0-2.91H8.71a1.46,1.46,0,0,0,0,2.91Z" transform="translate(0 -8.71)" fill="#fff"/><path d="M8.71,20.32H18.87a1.45,1.45,0,0,0,0-2.9H8.71a1.45,1.45,0,0,0,0,2.9Z" transform="translate(0 -8.71)" fill="#fff"/><path d="M8.71,24.68H18.87a1.46,1.46,0,0,0,0-2.91H8.71a1.46,1.46,0,0,0,0,2.91Z" transform="translate(0 -8.71)" fill="#fff"/><path d="M71.13,49.35H81.29a1.45,1.45,0,0,0,0-2.9H71.13a1.45,1.45,0,0,0,0,2.9Z" transform="translate(0 -8.71)" fill="#fff"/><path d="M71.13,53.71H81.29a1.45,1.45,0,0,0,0-2.9H71.13a1.45,1.45,0,0,0,0,2.9Z" transform="translate(0 -8.71)" fill="#fff"/><path d="M71.13,58.06h4.35a1.45,1.45,0,1,0,0-2.9H71.13a1.45,1.45,0,0,0,0,2.9Z" transform="translate(0 -8.71)" fill="#fff"/><path d="M81.29,55.16H79.84a1.45,1.45,0,0,0,0,2.9h1.45a1.45,1.45,0,0,0,0-2.9Z" transform="translate(0 -8.71)" fill="#fff"/></svg>