<svg xmlns="http://www.w3.org/2000/svg" viewBox="0 0 70.27 90"><path d="M36.55,28.18a1.32,1.32,0,0,0-1.32,1.32v1.41a1.32,1.32,0,1,0,2.63,0V29.5A1.32,1.32,0,0,0,36.55,28.18Z" transform="translate(-9.86 0)" fill="#fff"/><path d="M53.45,28.18a1.32,1.32,0,0,0-1.31,1.32v1.41a1.32,1.32,0,1,0,2.63,0V29.5A1.32,1.32,0,0,0,53.45,28.18Z" transform="translate(-9.86 0)" fill="#fff"/><path d="M50.17,38.44a1.32,1.32,0,0,0-1.87,0,4.9,4.9,0,0,1-3.3,1,4.9,4.9,0,0,1-3.3-1,1.32,1.32,0,1,0-1.85,1.87A7.44,7.44,0,0,0,45,42.09a7.44,7.44,0,0,0,5.15-1.79A1.31,1.31,0,0,0,50.17,38.44Z" transform="translate(-9.86 0)" fill="#fff"/><path d="M38,24H35.14a1.32,1.32,0,0,0,0,2.64H38A1.32,1.32,0,0,0,38,24Z" transform="translate(-9.86 0)" fill="#fff"/><path d="M54.86,24H52.05a1.32,1.32,0,0,0,0,2.64h2.81a1.32,1.32,0,0,0,0-2.64Z" transform="translate(-9.86 0)" fill="#fff"/><path d="M73.24,62.8l-9.51-2.93a2.81,2.81,0,0,0-.07-.86,3,3,0,0,0-1.6-2l-5.88-2.94V49.86a19.7,19.7,0,0,0,8.27-13.41h.78a5,5,0,0,0,5-4.34A4.86,4.86,0,0,0,69,28.37a4.79,4.79,0,0,0-1.57-1.15V12.59a9.78,9.78,0,0,0-9.77-9.77h-.22A16.62,16.62,0,0,0,47.73,0a33.71,33.71,0,0,0-16.4,3.7,57,57,0,0,1-8.19,3.16,1.33,1.33,0,0,0-.82.7,1.31,1.31,0,0,0,0,1.08,11.88,11.88,0,0,0,2.14,3.12c-.65.81-1.89,2.88-1.89,6.94v8.58a4.8,4.8,0,0,0,2,9.17h1a19.68,19.68,0,0,0,8.27,13.41v4.19L27.94,57a3,3,0,0,0-1.6,2,2.81,2.81,0,0,0-.07.86L16.76,62.8a9.72,9.72,0,0,0-6.9,9.34V88.68a1.32,1.32,0,0,0,2.64,0V72.14a7.09,7.09,0,0,1,5-6.82l9.88-3,1.75,2.32-2,2a4.12,4.12,0,0,0-.78,4.77l3.78,7.55h-3.6v-1.5a1.32,1.32,0,0,0-2.64,0v1.5H18.23a1.32,1.32,0,0,0-1.32,1.32v8.45A1.32,1.32,0,0,0,18.23,90H32.32a1.32,1.32,0,0,0,1.32-1.32V85.81l1.73,3.46a1.31,1.31,0,0,0,1.18.73,1.42,1.42,0,0,0,.59-.14,1.32,1.32,0,0,0,.58-1.77L28.77,70.18a1.49,1.49,0,0,1,.28-1.73l2.79-2.79A1.3,1.3,0,0,0,32,63.94l-3-4a.37.37,0,0,1-.07-.33.39.39,0,0,1,.21-.28l5.19-2.59L38,69.32a1.3,1.3,0,0,0,1.63.89,1.32,1.32,0,0,0,.9-1.63l-.58-2a15.55,15.55,0,0,0,10.14,0L45,84l-2.84-9.75a1.32,1.32,0,0,0-2.54.74l4.11,14.09a1.32,1.32,0,0,0,2.54,0l9.42-32.3,5.19,2.59a.39.39,0,0,1,.21.28A.37.37,0,0,1,61,60l-3,4a1.31,1.31,0,0,0,.12,1.72L61,68.45a1.49,1.49,0,0,1,.28,1.73L52.28,88.09a1.32,1.32,0,0,0,.58,1.77,1.28,1.28,0,0,0,.59.14,1.31,1.31,0,0,0,1.18-.73l9-17.91a4.11,4.11,0,0,0-.78-4.77l-2-2,1.75-2.32,9.88,3a7.09,7.09,0,0,1,5,6.82V88.68a1.32,1.32,0,0,0,2.64,0V72.14A9.72,9.72,0,0,0,73.24,62.8ZM31,87.36H19.55V81.54H24v.1a1.32,1.32,0,0,0,2.64,0v-.1H31ZM32.42,6.1A31.12,31.12,0,0,1,47.73,2.64c4.86,0,9.21,2,10.11,4.73a1.32,1.32,0,1,0,2.5-.83,4.27,4.27,0,0,0-.27-.67,7.14,7.14,0,0,1,4.75,6.72V26.77h-1.5a1.5,1.5,0,0,1-1.5-1.5V23.86c0-6.11-4.43-10.6-4.62-10.79a1.32,1.32,0,0,0-1.32-.33c-7.32,2.31-17.64,4.26-25.24.42A14.25,14.25,0,0,1,25.5,8.89,63.63,63.63,0,0,0,32.42,6.1ZM53.55,54.68,51,63.31a12.8,12.8,0,0,1-12.06,0l-2.52-8.63V51.4a19.63,19.63,0,0,0,17.1,0Zm-8.55-4a17,17,0,0,1-17-17,1.32,1.32,0,0,0-2.64,0v.09h-.79a2.24,2.24,0,0,1-1.64-.73,2.17,2.17,0,0,1-.55-1.71,2.34,2.34,0,0,1,2.39-2h1.91a4.15,4.15,0,0,0,4.14-4.14v-5a1.32,1.32,0,1,0-2.64,0v5a1.5,1.5,0,0,1-1.5,1.5h-1.5V18.7c0-3.07.83-4.6,1.21-5.14a17.32,17.32,0,0,0,2.85,1.84A24.7,24.7,0,0,0,39.81,18a49.86,49.86,0,0,0,16-2.46,13.88,13.88,0,0,1,3.33,8.35v1.41a4.15,4.15,0,0,0,4.14,4.14h2.11a2.2,2.2,0,0,1,1.64.73,2.16,2.16,0,0,1,.55,1.71,2.34,2.34,0,0,1-2.39,2h-.59v-.08a1.32,1.32,0,0,0-1.32-1.32h0A1.32,1.32,0,0,0,62,33.74,17,17,0,0,1,45,50.73Z" transform="translate(-9.86 0)" fill="#fff"/><path d="M71.77,79.61h-2.2v-2.2a1.32,1.32,0,0,0-2.64,0v2.2h-2.2a1.32,1.32,0,0,0,0,2.64h2.2v2.2a1.32,1.32,0,0,0,2.64,0v-2.2h2.2a1.32,1.32,0,1,0,0-2.64Z" transform="translate(-9.86 0)" fill="#fff"/></svg>